<svg version="1.1" viewBox="0 0 35.969 33.133" xmlns="http://www.w3.org/2000/svg"><g transform="translate(-17.529 -95.698)"><path d="m48.018 95.698a5.4791 5.4791 0 0 0-5.4787 5.4793 5.4791 5.4791 0 0 0 5.4793 5.4787 5.4791 5.4791 0 0 0 5.4793-5.4787 5.4791 5.4791 0 0 0-5.4793-5.4793 5.4791 5.4791 0 0 1-5.3e-4 0zm-13.557 0.0021c-1.4283-0.02696-2.8671 0.49355-3.9822 1.5673l-11.24 10.824c-1.1812 1.1374-1.7491 2.6609-1.7089 4.1739-0.04015 1.513 0.52777 3.0365 1.7089 4.1739l11.24 10.824c2.2302 2.1476 5.7548 2.0809 7.9024-0.14935 2.1476-2.2302 2.0814-5.7542-0.14883-7.9018l-7.2135-6.9464 7.2135-6.9463c2.2302-2.1476 2.2964-5.6722 0.14883-7.9024-1.0738-1.1151-2.4919-1.6892-3.9202-1.7162zm13.557 21.964a5.4791 5.4791 0 0 0-5.4787 5.4792 5.4791 5.4791 0 0 0 5.4793 5.4792 5.4791 5.4791 0 0 0 5.4793-5.4792 5.4791 5.4791 0 0 0-5.4793-5.4792 5.4791 5.4791 0 0 1-5.3e-4 0z" fill="#fffffe" fill-rule="evenodd" style="paint-order:stroke fill markers"/></g></svg>
