<svg version="1.1" viewBox="0 0 35.97 35.969" xmlns="http://www.w3.org/2000/svg" xmlns:xlink="http://www.w3.org/1999/xlink">
    <defs>
        <linearGradient id="linearGradient494" x1="17.529" x2="53.498" y1="112.26" y2="112.26" gradientTransform="translate(-17.528 -94.279)" gradientUnits="userSpaceOnUse">
            <stop stop-color="color(display-p3 1 0.12 0.74)" offset="0"/>
            <stop stop-color="color(display-p3 1 0.59 0.54)" offset="1"/>
        </linearGradient>
    </defs>
    <path d="m30.49 1.4191a5.4791 5.4791 0 0 0-5.4787 5.4793 5.4791 5.4791 0 0 0 5.4793 5.4787 5.4791 5.4791 0 0 0 5.4793-5.4787 5.4791 5.4791 0 0 0-5.4793-5.4793 5.4791 5.4791 0 0 1-5.3e-4 0zm-13.557 9.956e-4c-1.4283-0.02696-2.8671 0.49355-3.9822 1.5673l-11.24 10.824c-1.1812 1.1374-1.7491 2.6609-1.7089 4.1739-0.04015 1.513 0.52777 3.0365 1.7089 4.1739l11.24 10.824c2.2302 2.1476 5.7548 2.0809 7.9024-0.14935 2.1476-2.2302 2.0814-5.7542-0.14883-7.9018l-7.2135-6.9464 7.2135-6.9463c2.2302-2.1476 2.2964-5.6722 0.14883-7.9024-1.0738-1.1151-2.4919-1.6892-3.9202-1.7162zm13.557 22.173a5.4791 5.4791 0 0 0-5.4787 5.4792 5.4791 5.4791 0 0 0 5.4793 5.4792 5.4791 5.4791 0 0 0 5.4793-5.4792 5.4791 5.4791 0 0 0-5.4793-5.4792 5.4791 5.4791 0 0 1-5.3e-4 0z" fill="url(#linearGradient494)" style="paint-order:stroke fill markers"/>
</svg>
